<svg preserveAspectRatio="none" overflow="visible" style="display: block;" width="8" height="10.6667" viewBox="0 0 8 10.6667" fill="none" xmlns="http://www.w3.org/2000/svg">
<path id="Vector" fill-rule="evenodd" clip-rule="evenodd" d="M4 1.33333C3.26362 1.33333 2.66667 1.93029 2.66667 2.66667C2.66667 3.40305 3.26362 4 4 4C4.73638 4 5.33333 3.40305 5.33333 2.66667C5.33333 1.93029 4.73638 1.33333 4 1.33333ZM1.33333 2.66667C1.33333 1.19391 2.52724 0 4 0C5.47276 0 6.66667 1.19391 6.66667 2.66667C6.66667 4.13943 5.47276 5.33333 4 5.33333C2.52724 5.33333 1.33333 4.13943 1.33333 2.66667ZM2.66667 7.33333C1.93029 7.33333 1.33333 7.93029 1.33333 8.66667V9.33333H6.66667V8.66667C6.66667 7.93029 6.06971 7.33333 5.33333 7.33333H2.66667ZM0 8.66667C0 7.19391 1.19391 6 2.66667 6H5.33333C6.80609 6 8 7.19391 8 8.66667V9.33333C8 10.0697 7.40305 10.6667 6.66667 10.6667H1.33333C0.596954 10.6667 0 10.0697 0 9.33333V8.66667Z" fill="#4A5565"/>
</svg>
