<svg width="20" height="20" viewBox="0 0 20 20" fill="none" xmlns="http://www.w3.org/2000/svg">
<path fill-rule="evenodd" clip-rule="evenodd" d="M4.16667 4.16667V7.5H7.5V4.16667H4.16667ZM2.5 4.0475C2.5 3.19284 3.19284 2.5 4.0475 2.5H7.61917C8.47383 2.5 9.16667 3.19284 9.16667 4.0475V7.61917C9.16667 8.47383 8.47383 9.16667 7.61917 9.16667H4.0475C3.19284 9.16667 2.5 8.47383 2.5 7.61917V4.0475ZM12.5 4.16667V7.5H15.8333V4.16667H12.5ZM10.8333 4.0475C10.8333 3.19284 11.5262 2.5 12.3808 2.5H15.9525C16.8072 2.5 17.5 3.19284 17.5 4.0475V7.61917C17.5 8.47383 16.8072 9.16667 15.9525 9.16667H12.3808C11.5262 9.16667 10.8333 8.47383 10.8333 7.61917V4.0475ZM4.16667 12.5V15.8333H7.5V12.5H4.16667ZM2.5 12.3808C2.5 11.5262 3.19284 10.8333 4.0475 10.8333H7.61917C8.47383 10.8333 9.16667 11.5262 9.16667 12.3808V15.9525C9.16667 16.8072 8.47383 17.5 7.61917 17.5H4.0475C3.19284 17.5 2.5 16.8072 2.5 15.9525V12.3808ZM12.5 12.5V15.8333H15.8333V12.5H12.5ZM10.8333 12.3808C10.8333 11.5262 11.5262 10.8333 12.3808 10.8333H15.9525C16.8072 10.8333 17.5 11.5262 17.5 12.3808V15.9525C17.5 16.8072 16.8072 17.5 15.9525 17.5H12.3808C11.5262 17.5 10.8333 16.8072 10.8333 15.9525V12.3808Z" fill="white"/>
</svg>
